<svg width="115" height="21" viewBox="0 0 115 21" fill="none" xmlns="http://www.w3.org/2000/svg">
<path d="M33.9077 7.29785H35.7285L32.8174 15H31.2437L28.2305 7.29785H30.0728L32.0171 12.7441L33.9077 7.29785ZM38.4141 13.4478H41.4917V15H36.749V7.29785H41.3735V8.83936H38.4141V10.3594H41.0835V11.8687H38.4141V13.4478ZM47.1313 15L45.6274 12.3735H44.5586V15H42.8936V7.29785H46.0034C46.7769 7.29785 47.4178 7.53955 47.9263 8.02295C48.4383 8.50277 48.6943 9.11149 48.6943 9.84912C48.6943 10.3468 48.569 10.7926 48.3184 11.1865C48.0677 11.5768 47.7257 11.8776 47.2925 12.0889L48.9951 15H47.1313ZM44.5586 8.83936V10.832H45.8906C46.2344 10.832 46.5065 10.7407 46.707 10.5581C46.9076 10.3719 47.0078 10.132 47.0078 9.83838C47.0078 9.54476 46.9076 9.30485 46.707 9.11865C46.5065 8.93245 46.2344 8.83936 45.8906 8.83936H44.5586ZM50.166 15V7.29785H51.8311V15H50.166ZM58.1904 8.8501H55.2578V10.542H57.9058V12.0513H55.2578V15H53.5928V7.29785H58.1904V8.8501ZM59.4795 15V7.29785H61.1445V15H59.4795ZM64.5713 13.4478H67.6489V15H62.9062V7.29785H67.5308V8.83936H64.5713V10.3594H67.2407V11.8687H64.5713V13.4478ZM71.9619 7.29785C72.5205 7.29785 73.0415 7.39453 73.5249 7.58789C74.0119 7.78125 74.4255 8.04801 74.7656 8.38818C75.1094 8.72477 75.3779 9.13118 75.5713 9.60742C75.7682 10.0837 75.8667 10.5957 75.8667 11.1436C75.8667 11.695 75.7682 12.2106 75.5713 12.6904C75.3743 13.1667 75.104 13.5749 74.7603 13.915C74.4201 14.2516 74.0065 14.5166 73.5195 14.71C73.0361 14.9033 72.5169 15 71.9619 15H69.0508V7.29785H71.9619ZM71.9243 13.4531C72.5832 13.4531 73.1203 13.2383 73.5356 12.8086C73.9546 12.3753 74.1641 11.8203 74.1641 11.1436C74.1641 10.4668 73.9546 9.91536 73.5356 9.48926C73.1203 9.05957 72.5832 8.84473 71.9243 8.84473H70.7158V13.4531H71.9243ZM84.4658 10.9395C84.806 11.1149 85.0692 11.3638 85.2554 11.686C85.4416 12.0047 85.5347 12.3682 85.5347 12.7764C85.5347 13.3923 85.2965 13.9168 84.8203 14.3501C84.3477 14.7834 83.7765 15 83.1069 15H79.8359V7.29785H83.021C83.6834 7.29785 84.2349 7.48763 84.6753 7.86719C85.1157 8.24316 85.3359 8.71403 85.3359 9.27979C85.3359 9.60921 85.259 9.92074 85.105 10.2144C84.951 10.508 84.738 10.7497 84.4658 10.9395ZM83.4829 10.1338C83.6405 9.97982 83.7192 9.78109 83.7192 9.5376C83.7192 9.29411 83.6405 9.09717 83.4829 8.94678C83.3254 8.79639 83.1177 8.72119 82.8599 8.72119H81.4741V10.3594H82.8599C83.1213 10.3594 83.3289 10.2842 83.4829 10.1338ZM82.9512 13.4692C83.2233 13.4692 83.4417 13.3887 83.6064 13.2275C83.7747 13.0664 83.8589 12.8587 83.8589 12.6045C83.8589 12.3538 83.7747 12.1479 83.6064 11.9868C83.4417 11.8257 83.2233 11.7451 82.9512 11.7451H81.4741V13.4692H82.9512ZM92.2754 14.3071C91.6738 14.88 90.9147 15.1665 89.998 15.1665C89.0814 15.1665 88.3205 14.88 87.7153 14.3071C87.1138 13.7306 86.813 12.9948 86.813 12.0996V7.29785H88.4834V12.0244C88.4834 12.5007 88.623 12.882 88.9023 13.1685C89.1852 13.4549 89.5505 13.5981 89.998 13.5981C90.4456 13.5981 90.8091 13.4549 91.0884 13.1685C91.3677 12.882 91.5073 12.5007 91.5073 12.0244V7.29785H93.1777V12.0996C93.1777 12.9948 92.877 13.7306 92.2754 14.3071ZM101.267 7.29785L98.5542 11.8901V15H96.8462V11.8794L94.1606 7.29785H95.9331L97.7109 10.3809L99.4941 7.29785H101.267ZM103.984 13.4478H107.062V15H102.319V7.29785H106.944V8.83936H103.984V10.3594H106.654V11.8687H103.984V13.4478ZM112.702 15L111.198 12.3735H110.129V15H108.464V7.29785H111.574C112.347 7.29785 112.988 7.53955 113.497 8.02295C114.009 8.50277 114.265 9.11149 114.265 9.84912C114.265 10.3468 114.139 10.7926 113.889 11.1865C113.638 11.5768 113.296 11.8776 112.863 12.0889L114.565 15H112.702ZM110.129 8.83936V10.832H111.461C111.805 10.832 112.077 10.7407 112.277 10.5581C112.478 10.3719 112.578 10.132 112.578 9.83838C112.578 9.54476 112.478 9.30485 112.277 9.11865C112.077 8.93245 111.805 8.83936 111.461 8.83936H110.129Z" fill="#89C25F"/>
<path d="M10.5 1.75C5.67875 1.75 1.75 5.67875 1.75 10.5C1.75 15.3212 5.67875 19.25 10.5 19.25C15.3212 19.25 19.25 15.3212 19.25 10.5C19.25 5.67875 15.3212 1.75 10.5 1.75ZM14.6825 8.4875L9.72125 13.4487C9.59875 13.5712 9.4325 13.6413 9.2575 13.6413C9.0825 13.6413 8.91625 13.5712 8.79375 13.4487L6.3175 10.9725C6.06375 10.7188 6.06375 10.2987 6.3175 10.045C6.57125 9.79125 6.99125 9.79125 7.245 10.045L9.2575 12.0575L13.755 7.56C14.0087 7.30625 14.4288 7.30625 14.6825 7.56C14.9363 7.81375 14.9363 8.225 14.6825 8.4875Z" fill="#89C25F"/>
</svg>
